<?xml version="1.0" encoding="UTF-8" standalone="no"?>
<!-- Uploaded to: SVG Repo, www.svgrepo.com, Generator: SVG Repo Mixer Tools -->

<svg
   fill="#CA9B5B"
   height="800px"
   width="800px"
   version="1.1"
   id="Layer_1"
   viewBox="0 0 511.997 511.997"
   xml:space="preserve"
   sodipodi:docname="soap.svg"
   inkscape:version="1.3.2 (091e20e, 2023-11-25)"
   xmlns:inkscape="http://www.inkscape.org/namespaces/inkscape"
   xmlns:sodipodi="http://sodipodi.sourceforge.net/DTD/sodipodi-0.dtd"
   xmlns="http://www.w3.org/2000/svg"
   xmlns:svg="http://www.w3.org/2000/svg"><defs
   id="defs6" /><sodipodi:namedview
   id="namedview6"
   pagecolor="#ffffff"
   bordercolor="#000000"
   borderopacity="0.25"
   inkscape:showpageshadow="2"
   inkscape:pageopacity="0.0"
   inkscape:pagecheckerboard="0"
   inkscape:deskcolor="#d1d1d1"
   inkscape:zoom="0.295"
   inkscape:cx="398.30508"
   inkscape:cy="400"
   inkscape:window-width="1312"
   inkscape:window-height="449"
   inkscape:window-x="0"
   inkscape:window-y="25"
   inkscape:window-maximized="0"
   inkscape:current-layer="Layer_1" />
<g
   id="g2">
	<g
   id="g1"
   style="fill:#2997f6;fill-opacity:1">
		<path
   d="M360.654,17.264L346.096,2.708C344.362,0.974,342.01,0,339.556,0H218.696c-5.109,0-9.249,4.141-9.249,9.249    c0,5.108,4.14,9.249,9.249,9.249h18.705v14.654h-5.815c-16.697,0-30.283,13.584-30.283,30.281V97.63    c-16.275,4.031-28.38,18.757-28.38,36.26v29.106c-15.682,6.322-26.785,21.687-26.785,39.606v266.704    c0,23.54,19.151,42.692,42.692,42.692h115.638c23.54,0,42.692-19.151,42.692-42.692V249.422c0-5.108-4.14-9.249-9.249-9.249    c-5.109,0-9.249,4.141-9.249,9.249v219.886c0,13.34-10.853,24.193-24.193,24.193H188.831c-13.34,0-24.193-10.853-24.193-24.193    V202.604c0-13.34,10.853-24.193,24.193-24.193h115.638c13.34,0,24.193,10.853,24.193,24.193c0,5.108,4.14,9.249,9.249,9.249    c5.109,0,9.249-4.141,9.249-9.249c0.001-17.919-11.101-33.284-26.783-39.606v-29.106c0-17.505-12.104-32.229-28.38-36.26V63.435    c0-16.697-13.586-30.281-30.283-30.281H255.9V18.499h79.825l11.849,11.848c1.805,1.805,4.173,2.708,6.54,2.708    s4.734-0.903,6.541-2.709C364.268,26.733,364.268,20.877,360.654,17.264z M261.715,51.652c6.498,0,11.784,5.286,11.784,11.783    v33.098h-19.038c-5.109,0-9.249,4.141-9.249,9.249s4.14,9.249,9.249,9.249h28.556c10.4,0,18.86,8.46,18.86,18.86v26.02H191.424    v-26.02c0-10.4,8.46-18.86,18.86-18.86c0.046,0,0.09-0.006,0.134-0.006c0.046,0.001,0.09,0.006,0.134,0.006    c5.109,0,9.249-4.141,9.249-9.249V63.435c0-6.497,5.286-11.783,11.784-11.783H261.715z"
   id="path1"
   style="fill:#2997f6;fill-opacity:1" />
	</g>
</g>
<g
   id="g4"
   style="fill:#2997f6;fill-opacity:1">
	<g
   id="g3"
   style="fill:#2997f6;fill-opacity:1">
		<circle
   cx="356.609"
   cy="56.413"
   r="9.249"
   id="circle2"
   style="fill:#2997f6;fill-opacity:1" />
	</g>
</g>
<g
   id="g6">
	<g
   id="g5"
   style="fill:#2997f6;fill-opacity:1">
		<path
   d="M246.651,278.029c-31.94,0-57.927,25.986-57.927,57.927c0,31.941,25.986,57.927,57.927,57.927    c31.941,0,57.927-25.986,57.927-57.927C304.578,304.015,278.592,278.029,246.651,278.029z M246.651,375.385    c-21.741,0-39.428-17.687-39.428-39.428c0-21.741,17.687-39.428,39.428-39.428c21.741,0,39.428,17.687,39.428,39.428    C286.079,357.697,268.392,375.385,246.651,375.385z"
   id="path4"
   style="fill:#2997f6;fill-opacity:1" />
	</g>
</g>
</svg>
